<?xml version="1.0" standalone="no"?>
<!DOCTYPE svg PUBLIC "-//W3C//DTD SVG 20010904//EN"
 "http://www.w3.org/TR/2001/REC-SVG-20010904/DTD/svg10.dtd">
<svg version="1.0" xmlns="http://www.w3.org/2000/svg"
 width="16.000000pt" height="16.000000pt" viewBox="0 0 16.000000 16.000000"
 preserveAspectRatio="xMidYMid meet">
<metadata>
Created by potrace 1.11, written by Peter Selinger 2001-2013
</metadata>
<g transform="translate(0.000000,16.000000) scale(0.006154,-0.006154)"
fill="#000000" stroke="none">
<path d="M550 2175 c-211 -43 -369 -161 -427 -319 -60 -163 -24 -377 83 -496
76 -84 138 -111 469 -204 127 -36 247 -72 267 -80 77 -33 120 -100 120 -187
-1 -55 -18 -93 -59 -130 -28 -26 -106 -76 -110 -71 -2 1 -4 2 -5 1 -65 -19
-262 -21 -333 -3 -121 32 -186 80 -227 171 -17 38 -33 61 -40 58 -14 -5 -243
-56 -268 -60 -55 -8 74 -220 187 -307 30 -23 161 -84 208 -97 108 -29 196 -39
315 -36 127 3 139 4 245 31 115 30 244 108 309 187 133 162 146 406 34 590
-69 111 -176 170 -421 233 -56 14 -109 27 -118 29 -137 27 -266 77 -313 121
-92 86 -59 223 69 289 55 28 65 30 174 30 104 0 122 -3 171 -26 63 -30 104
-67 131 -122 15 -29 24 -37 39 -32 10 3 27 7 37 9 10 2 47 12 83 21 74 20 73
19 121 29 l37 8 -19 50 c-56 153 -214 265 -444 313 -61 13 -251 13 -315 0z"/>
<path d="M2190 1741 c-113 -36 -200 -123 -256 -258 l-24 -58 0 60 c-1 33 -2
98 -3 145 l-2 85 -110 2 c-60 1 -119 0 -130 -2 -20 -4 -20 -12 -20 -640 l0
-635 50 -1 c111 -2 226 1 233 5 4 2 7 145 7 318 -1 172 3 331 8 353 5 22 10
45 11 50 7 35 51 134 74 167 34 48 126 95 202 104 30 4 58 8 61 10 4 2 6 70 5
151 l-1 148 -40 2 c-22 1 -51 -2 -65 -6z"/>
<path d="M2308 918 c-42 -9 -104 -45 -130 -76 -39 -48 -52 -87 -52 -157 0
-104 43 -173 136 -221 37 -19 161 -22 183 -4 8 7 15 9 15 5 0 -9 70 43 92 70
33 38 51 112 44 177 -17 145 -145 237 -288 206z"/>
</g>
</svg>
